# xmcd
#
# Track frame offsets:
#	150
#	20152
#	42122
#	60567
#	77184
#	94908
#	115743
#	133913
#	154309
#	171960
#	190642
#	207488
#	232269
#
# Disc length: 3411 seconds
#
# Revision: 0
# Processed by: cddbd v1.5PL3 Copyright (c) Steve Scherf et al.
# Submitted via: dBpowerAMP V4.0
#
DISCID=b90d510d
DTITLE=Tatar - Tatar
DYEAR=2003
DGENRE=Hip Hop
TTITLE0=Hairiig Hundel
TTITLE1=Nulims Dussan Khair /feat. Tsomo/
TTITLE2=Ardiin Bagsh
TTITLE3=Gui Jaalaa Gui
TTITLE4=Hun Huneeree Bai
TTITLE5=Love Song /feat. Minje/
TTITLE6=Hip Hop Hun
TTITLE7=Nulims Dussan Hair /remix/ S.Altanzul
TTITLE8=Chamdaa Ugssun Hair
TTITLE9=Ene Huu
TTITLE10=Ugee Geej Uu /feat. Mr Dogs - TG/
TTITLE11=Rock baby
TTITLE12=Hungiin Degdeehei /feat Lumino/
EXTD=Mongolian Hip Hop Tatar (2003) Album Tatar
EXTT0=
EXTT1=
EXTT2=
EXTT3=
EXTT4=
EXTT5=
EXTT6=
EXTT7=
EXTT8=
EXTT9=
EXTT10=
EXTT11=
EXTT12=
PLAYORDER=
